<?xml version="1.0" encoding="utf-8"?>
<!-- Generator: Adobe Illustrator 19.0.0, SVG Export Plug-In . SVG Version: 6.00 Build 0)  -->
<svg version="1.1" id="Layer_1" xmlns="http://www.w3.org/2000/svg" xmlns:xlink="http://www.w3.org/1999/xlink" x="0px" y="0px"
	 viewBox="0 0 30.7 35.3" style="enable-background:new 0 0 30.7 35.3;" xml:space="preserve">
<style type="text/css">
	.st0{fill:#F0F2ED;}
	.st1{fill:#F6D40B;}
	.st2{fill:#313332;}
</style>
<g>
	<circle class="st0" cx="15.7" cy="12.3" r="49.7"/>
</g>
<g>
	<path class="st1" d="M-8.3,14h-8.9c-0.6,0-1.2-0.5-1.2-1.2c0-0.6,0.5-1.2,1.2-1.2h8.9c0.6,0,1.2,0.5,1.2,1.2
		C-7.2,13.5-7.7,14-8.3,14z"/>
	<path class="st1" d="M-10.1,32c-0.4,0-0.7-0.2-0.9-0.5c-0.4-0.5-0.2-1.2,0.3-1.6l7.3-5.1c0.5-0.4,1.2-0.2,1.6,0.3
		c0.4,0.5,0.2,1.2-0.3,1.6l-7.3,5.1C-9.6,31.9-9.9,32-10.1,32z"/>
	<path class="st1" d="M-4.5,0c-0.3,0-0.5-0.1-0.8-0.3l-6.8-5.8c-0.5-0.4-0.5-1.2-0.1-1.6c0.4-0.5,1.1-0.5,1.6-0.1L-3.8-2
		c0.5,0.4,0.5,1.1,0.1,1.6C-3.9-0.1-4.2,0-4.5,0z"/>
	<path class="st1" d="M8.4-9c-0.5,0-1-0.4-1.1-0.9l-2-8.7c-0.1-0.6,0.2-1.2,0.9-1.4c0.6-0.1,1.2,0.2,1.4,0.9l2,8.7
		C9.7-9.8,9.3-9.2,8.7-9C8.6-9,8.5-9,8.4-9z"/>
	<path class="st1" d="M24.1-9c-0.1,0-0.2,0-0.3,0c-0.6-0.1-1-0.8-0.9-1.4l2-8.7c0.1-0.6,0.8-1,1.4-0.9c0.6,0.1,1,0.8,0.9,1.4l-2,8.7
		C25.1-9.4,24.7-9,24.1-9z"/>
	<g>
		<path class="st1" d="M45.7,14h-8.9c-0.6,0-1.2-0.5-1.2-1.2c0-0.6,0.5-1.2,1.2-1.2h8.9c0.6,0,1.2,0.5,1.2,1.2
			C46.9,13.5,46.4,14,45.7,14z"/>
		<path class="st1" d="M40.6,31.3c-0.2,0-0.5-0.1-0.7-0.2l-7.3-5.1c-0.5-0.4-0.7-1.1-0.3-1.6c0.4-0.5,1.1-0.6,1.6-0.3l7.3,5.1
			c0.5,0.4,0.6,1.1,0.3,1.6C41.4,31.1,41,31.3,40.6,31.3z"/>
		<path class="st1" d="M35.1,0c-0.3,0-0.7-0.1-0.9-0.4c-0.4-0.5-0.4-1.2,0.1-1.6l6.8-5.8c0.5-0.4,1.2-0.4,1.6,0.1
			c0.4,0.5,0.4,1.2-0.1,1.6l-6.8,5.8C35.6-0.1,35.3,0,35.1,0z"/>
	</g>
</g>
<path class="st2" d="M21,38.8c0,0-10,0-10.5,0c-0.5,0-1,0.3-1,0.8v2c0,0.3,0.2,0.6,0.6,0.7l5.3,1.9c0.1,0,0.3,0.1,0.4,0.1
	c0.1,0,0.3,0,0.4-0.1l5.3-1.9c0.3-0.1,0.6-0.4,0.6-0.7v-1.9C22,39.1,21.6,38.8,21,38.8z"/>
<g>
	<path class="st1" d="M30.7,15.4C30.7,6.9,23.8,0,15.4,0C6.9,0,0,6.9,0,15.4c0,3.4,1.1,6.7,3.2,9.4c0,0,0,0,0,0c4.4,6.1,3.3,9,3.3,9
		c0,0.1-0.1,0.4-0.1,0.4s0.1,0.7,0.5,0.9c0.1,0.1,0.3,0.1,0.4,0.1c0.3,0,13.4,0.2,15.9,0c0,0,0.1,0,0.1,0c0.2,0,0.3,0,0.3-0.1
		c0.2-0.1,0.7-0.9,0.7-0.9s-0.1-0.1-0.2-0.4c0,0-1.2-3,3.3-9.1C29.6,22,30.7,18.8,30.7,15.4z"/>
</g>
<path class="st2" d="M24.5,37.4v-0.8c0-1.3,0-2.4,0-2.4h-18c0,0,0,1.1,0,2.4v0.8c0,1.3,1.1,2.4,2.4,2.4h13.2
	C23.4,39.8,24.5,38.7,24.5,37.4z"/>
</svg>
